/* XPM */
static char * door_open_xpm[] = {
"64 64 10 1",
" 	c #689F38",
".	c #311047",
"+	c #F9FBE7",
"@	c #FDD835",
"#	c #558B2F",
"$	c #33531C",
"%	c #95BC74",
"&	c #8B2747",
"*	c #B25C34",
"=	c #E5DB48",
"                     ......................                     ",
"  +                  ......................                     ",
" +@+                 ......................              #      ",
"  +               #  ......................              $      ",
"            #      # ......................             #       ",
"           #         ......................         %   $       ",
"                ................................     %     %    ",
"                ................................     %  % %     ",
"                ................................       %        ",
" #              ................................       %        ",
"#  #            ................................             #  ",
"#  $            ................................             $  ",
"$ #   %%   ..........................&&&&&&&&&&&.....         # ",
"$ $  %     ..........................&&&&&&&&&&&.....         $ ",
"           ..........................&&&&&&&&&&&.....           ",
"   %%   %% ..........................&&&&&&&&&&&.....#          ",
"  %    %   ..........................&&&&&&&&&&&.....           ",
"     ................................&&&&&&*****&&&&&......     ",
"     ................................&&&&&&*****&&&&&......+    ",
"     ................................&&&&&&*****&&&&&......@+   ",
"     ................................&&&&&&*****&&&&&......+    ",
"     ................................&&&&&&*****&&&&&......     ",
"     ................................&&&&&&*****&&&&&......     ",
".....................................&&&&&&*****&&&&&&&&&&&.....",
".....................................&&&&&&*****&&&&&&&&&&&.....",
".....................................&&&&&&*****&&&&&&&&&&&.....",
".....................................&&&&&&*****&&&&&&&&&&&.....",
".....................................&&&&&&*****&&&&&&&&&&&.....",
".....................................&&&&&&*****&&&&&&&&&&&.....",
".....................................&&&&&&*****&&&&&******.....",
".....................................&&&&&&*****&&&&&******.....",
".....................................&&&&&&*****&&&&&******.....",
".....................................&&&&&&*****&&&&&******.....",
".....................................&&&&&&*****&&&&&******.....",
".....................................&&&&&&*****&&&&&******.....",
".....................................&&&&&&*****&&&&&******.....",
".....................................&&&&&&*****&&&&&******.....",
".....................................&&&&&&*****&&&&&******.....",
".....................................&&&&&&*****&&&&&******.....",
".....................................&&&&&&*****&&&&&******.....",
".....................................&&&&&&*****&&&&&******.....",
"................................=====&&&&&&*****&&&&&******.....",
"................................=====&&&&&&*****&&&&&******.....",
"................................=====&&&&&&*****&&&&&******.....",
"................................=====&&&&&&*****&&&&&******.....",
"................................=====&&&&&&*****&&&&&******.....",
"................................=====&&&&&&*****&&&&&******.....",
".....................................&&&&&&*****&&&&&******.....",
".....................................&&&&&&*****&&&&&******.....",
".....................................&&&&&&*****&&&&&******.....",
".....................................&&&&&&*****&&&&&******.....",
".....................................&&&&&&*****&&&&&******.....",
".....................................&&&&&&*****&&&&&******.....",
".....................................&&&&&&*****&&&&&******.....",
".....................................&&&&&&*****&&&&&******.....",
".....................................&&&&&&*****&&&&&******.....",
".....................................&&&&&&*****&&&&&******.....",
".....................................&&&&&&*****&&&&&******.....",
".....................................&&&&&&*****&&&&&******.....",
".....................................&&&&&&*****&&&&&******.....",
".....................................&&&&&&*****&&&&&******.....",
".....................................&&&&&&*****&&&&&******.....",
".....................................&&&&&&*****&&&&&******.....",
".....................................&&&&&&*****&&&&&******....."};
