/* XPM */
static char * fox_r_xpm[] = {
"64 64 64 1",
" 	c #689F38",
".	c #F9FBE7",
"+	c #558B2F",
"@	c #FDD835",
"#	c #33531C",
"$	c #95BC74",
"%	c #3E5F21",
"&	c #2F2F2E",
"*	c #523A2A",
"=	c #9D5021",
"-	c #6A4935",
";	c #563B29",
">	c #BF8D6F",
",	c #30302E",
"'	c #995E3A",
")	c #754426",
"!	c #FFFFFF",
"~	c #714C36",
"{	c #D8B9A6",
"]	c #666665",
"^	c #D67941",
"/	c #B8B8B8",
"(	c #5E3D28",
"_	c #BE6733",
":	c #8E5939",
"<	c #774F36",
"[	c #888888",
"}	c #6A4127",
"|	c #B76330",
"1	c #7C5137",
"2	c #623E28",
"3	c #D2AE99",
"4	c #DEDEDE",
"5	c #797978",
"6	c #2F2F2F",
"7	c #959595",
"8	c #EABB9F",
"9	c #CDA68E",
"0	c #AA836B",
"a	c #815337",
"b	c #757574",
"c	c #DBDBDB",
"d	c #727272",
"e	c #B96431",
"f	c #8F8F8E",
"g	c #6E6E6E",
"h	c #B4602E",
"i	c #A6A6A5",
"j	c #6E4227",
"k	c #828281",
"l	c #D4D4D4",
"m	c #C49F88",
"n	c #BF6934",
"o	c #616161",
"p	c #573B29",
"q	c #6C4A35",
"r	c #6A4F3E",
"s	c #7E5E49",
"t	c #373735",
"u	c #5D4231",
"v	c #4F4F4E",
"w	c #3B3B39",
"x	c #393938",
"y	c #333331",
"                                                                ",
"  .                           + +                               ",
" .@.                  +        +                         +      ",
"  .               +  #                                   #      ",
"            +      +                 +   ++             +       ",
"           +          +              ++ ++#         $   #       ",
"                  +  #                + +#           $     $    ",
"                   #                  # +            $  $ $     ",
"                   +                      +   ++       $        ",
" +                                        #+ +++       $        ",
"+  +                                       + +#              +  ",
"+  #                          +            # #               #  ",
"# +   $$          .          +    +                           + ",
"# #  $           .@.             +                            # ",
"                  .           +                     +           ",
"   $$   $$                +  +                       +          ",
"  $    $                 +        +      ++                     ",
"                                 +    ++  +                     ",
"                             +         ++ %+  +            .    ",
"                          &&&           #+ # ++           .@.   ",
"                          &**           #+  +#             .    ",
"            +  +  &&&&    &==&             +#                   ",
"             +  + &--;   $&>>;                                  ",
"    + +       + + ,'')&&  &!!=&&                                ",
"     +            +&&&&&&&&!!=&&             &&&                ",
"                   &&~~~~~~{{=&&             ]&&                ",
"                   &&^^^^^^===&&        &&&&&/&&           +    ",
"                   ((___::^===&&        <<[[[/&&            +   ",
"  ++              &=====&&^===&&      &&^^!!!/&&   $            ",
"    ++            &}}|||11^===22      11^^34456&    $  $        ",
"+++  +          &&&&&^^^^^^=====&&   &^^^^=//&        $         ",
"  ++ %+  + $$   &&77788888899000&&   a^^^^=bb&           $      ",
"   #+ # ++$       777!!!!!cccddd&&&&&^^^ee=&&       $   $       ",
"   #+  +#         &&&!!!!!///&&&&&&&&^^^===&&        $          ",
"      +#   ++        fffffggg}}}}}}}}1he==2          $          ",
"     $ $    ++       &&&&&&&&========,====&                     ",
" ++   $  +  #+  +    &iiii:::___=====j((((+++             +     ",
"  ++      + #+ ++    &!!!!^^^^^^======&&&& +++             +    ",
"  #+  +   #+ # +#    &kkllmhh^^^nn====&&    #+  +++            +",
"+ #+ ++   #+  +#     &&&///==^^^^^====&&+++  # ++#              ",
"#+ # +#       #      &))ooopp^qqqqppp=&& #++   +#               ",
"#+  +#  $ $          &rr&& &&s&&&&t&&u&&  ##+              +    ",
"    #    $           &vv&& &&v&&&&w&&w&&                    +   ",
"                     &xx   &&x    y  y&&                        ",
"                     &&&   &&& ++ &  &&&             + +        ",
"               + +         ++ ++#                     +         ",
"                +           + +#                                ",
"   +                        # +                +                ",
"   #                            +   ++        +                 ",
"    +      .                    #+ +++       +                  ",
"    #     .@.                    + +#               +   ++      ",
"           .                     # #                ++ +++      ",
"              .     +     +   ++              +  .   + ++       ",
"     $   $$  .@.     +    #+ ++#             +  .@.  + +        ",
"      $ $     .            # +#             +    .              ",
"       $$ $$        +      # +                                  ",
"         $           +         ++                               ",
" ++                         ++  +                        ++     ",
"++                   +       ++ %+  +                     ++   +",
"++              +     +       #+ # ++                   +  +#  +",
"#         +     #             #+  +#           +       + # #  ##",
"  ++       +     +               +#           +           #  #  ",
"#+               #                           +              +  #",
"                                                                "};
