/* XPM */
static char * rabbit_r_xpm[] = {
"64 64 12 1",
" 	c #689F38",
".	c #F9FBE7",
"+	c #558B2F",
"@	c #FDD835",
"#	c #33531C",
"$	c #95BC74",
"%	c #311047",
"&	c #B25C34",
"*	c #F7EFBA",
"=	c #3E5F21",
"-	c #E2AE60",
";	c #8B2747",
"                                                                ",
"  .                           + +                               ",
" .@.                  +        +                         +      ",
"  .               +  #                                   #      ",
"            +      +                 +   ++             +       ",
"           +          +              ++ ++#         $   #       ",
"                  +  #                + +#           $     $    ",
"                   #                  # +            $  $ $     ",
"                   +                      +   ++       $        ",
" +                                        #+ +++       $        ",
"+  +                                       + +#              +  ",
"+  #                          +            # #               #  ",
"# +   $$          .          +    +                           + ",
"# #  $           .@.             +                            # ",
"                  .           +                     +           ",
"   $$   $$                +  +                       +          ",
"  $    $                 + %%%%%%%%%%    ++                     ",
"                           %%%%%%%%%% ++  +                     ",
"                        %%%&&%%%&&&**%%%+ =+  +            .    ",
"                        %%%&&%%%&&&**%%%#+ # ++           .@.   ",
"                        %%%&&%%%&&&**%%%#+  +#             .    ",
"            +  +    +   %%%&&%%%&&&**%%%   +#                   ",
"             +  +  +    %%%&&%%%&&&**%%%                        ",
"    + +       + + +     %%%&&%%%&&&**%%%                        ",
"     +            +     %%%&&%%%&&&**%%%                        ",
"                        %%%&&%%%&&&**%%%                        ",
"                        %%%&&%%%&&&**%%% .                 +    ",
"                        %%%&&%%%&&&**%%%.@.                 +   ",
"  ++                 %%%%%%%%%%%*****%%%%%%        $            ",
"    ++               %%%%%%%%%%%*****%%%%%%         $  $        ",
"+++  +               %%%%%%%%%%%*****%%%%%%           $         ",
"  ++ =+  + $$      %%---****************---%%            $      ",
"   #+ # ++$        %%---****************---%%       $   $       ",
"   #+  +#          %%******%%**************%%        $          ",
"      +#   ++      %%******%%**************%%        $          ",
"     $ $    ++     %%******%%**************%%                   ",
" ++   $  +  #+  %%%--******%%**************--%%%          +     ",
"  ++      + #+ +%%%--******%%**************--%%%           +    ",
"  #+  +   #+ # +%%%**********;;;*************%%%+++            +",
"+ #+ ++   #+  +#%%%**********;;;*************%%%+#              ",
"#+ # +#       # %%%**********;;;*************%%%#               ",
"#+  +#  $ $     %%%*****%%%******************%%%           +    ",
"    #    $      %%%*****%%%******************%%%            +   ",
"                   %%%%%****************---%%                   ",
"                   %%%%%****************---%%        + +        ",
"               + + %%%%%****************---%%         +         ",
"                +    %%%---**********---%%%                     ",
"   +                 %%%---**********---%%%    +                ",
"   #                            +   ++        +                 ",
"    +      .                    #+ +++       +                  ",
"    #     .@.                    + +#               +   ++      ",
"           .                     # #                ++ +++      ",
"              .     +     +   ++              +  .   + ++       ",
"     $   $$  .@.     +    #+ ++#             +  .@.  + +        ",
"      $ $     .            # +#             +    .              ",
"       $$ $$        +      # +                                  ",
"         $           +         ++                               ",
" ++                         ++  +                        ++     ",
"++                   +       ++ =+  +                     ++   +",
"++              +     +       #+ # ++                   +  +#  +",
"#         +     #             #+  +#           +       + # #  ##",
"  ++       +     +               +#           +           #  #  ",
"#+               #                           +              +  #",
"                                                                "};
