/* XPM */
static char * rabbit_d_xpm[] = {
"64 64 11 1",
" 	c #689F38",
".	c #F9FBE7",
"+	c #558B2F",
"@	c #FDD835",
"#	c #33531C",
"$	c #95BC74",
"%	c #311047",
"&	c #F7EFBA",
"*	c #B25C34",
"=	c #3E5F21",
"-	c #8B2747",
"                                                                ",
"  .                           + +                               ",
" .@.                  +        +                         +      ",
"  .               +  #                                   #      ",
"            +      +                 +   ++             +       ",
"           +          +              ++ ++#         $   #       ",
"                  +  #                + +#           $     $    ",
"                   #                  # +            $  $ $     ",
"                   +                      +   ++       $        ",
" +                                        #+ +++       $        ",
"+  +                                       + +#              +  ",
"+  #                          +            # #               #  ",
"# +   $$          .          +    +                           + ",
"# #  $           .@.             +                            # ",
"                  .           +                     +           ",
"   $$   $$                +  +                       +          ",
"  $    $               %%%%       +  %%%%++                     ",
"                       %%%%      +   %%%% +                     ",
"                     %%&&&&%%%    %%%&&&&%%+  +            .    ",
"                     %%&&&&%%%    %%%&&&&%%# ++           .@.   ",
"                     %%&&&&%%%    %%%&&&&%% +#             .    ",
"            +  +    +%%**&&%%%    %%%&&**%%+#                   ",
"             +  +  + %%**&&%%%    %%%&&**%%                     ",
"    + +       + + +  %%**&&%%%    %%%&&**%%                     ",
"     +            +  %%**&&%%%    %%%&&**%%                     ",
"                     %%**&&%%%    %%%&&**%%                     ",
"                     %%**&&%%%%%%%%%%&&**%%                +    ",
"                     %%**&&%%%%%%%%%%&&**%%                 +   ",
"  ++                 %%&&&&&&&&&&&&&&&&&&%%        $            ",
"    ++               %%&&&&&&&&&&&&&&&&&&%%         $  $        ",
"+++  +               %%&&&&&&&&&&&&&&&&&&%%           $         ",
"  ++ =+  + $$     %%%&&&&&&&&&&&&&&&&&&&&&&%%%           $      ",
"   #+ # ++$       %%%&&&&&&&&&&&&&&&&&&&&&&%%%      $   $       ",
"   #+  +#         %%%&&&&%%&&&&&&&&&&%%&&&&%%%       $          ",
"      +#   ++     %%%&&&&%%&&&&&&&&&&%%&&&&%%%       $          ",
"     $ $    ++    %%%&&&&%%&&&&&&&&&&%%&&&&%%%                  ",
" ++   $  +  #+  %%&&&&&&&%%&&&&&&&&&&%%&&&&&&&%%          +     ",
"  ++      + #+ +%%&&&&&&&%%&&&&&&&&&&%%&&&&&&&%%           +    ",
"  #+  +   #+ # +%%&&&&&--&&&&&&&&&&&&&&--&&&&&%%+++            +",
"+ #+ ++   #+  +#%%&&&&&--&&&&&&&&&&&&&&--&&&&&%%+#              ",
"#+ # +#       # %%&&&&&--&&&&&&&&&&&&&&--&&&&&%%#               ",
"#+  +#  $ $     %%&&&&&&&&&%%%&&&&%%%&&&&&&&&&%%           +    ",
"    #    $      %%&&&&&&&&&%%%&&&&%%%&&&&&&&&&%%            +   ",
"                  %%%&&&&&&&&&%%%%&&&&&&&&&%%%                  ",
"                  %%%&&&&&&&&&%%%%&&&&&&&&&%%%       + +        ",
"               + +%%%&&&&&&&&&%%%%&&&&&&&&&%%%        +         ",
"                +    %%&&&&&&&&&&&&&&&&&&%%                     ",
"   +                 %%&&&&&&&&&&&&&&&&&&%%    +                ",
"   #                            +   ++        +                 ",
"    +      .                    #+ +++       +                  ",
"    #     .@.                    + +#               +   ++      ",
"           .                     # #                ++ +++      ",
"              .     +     +   ++              +  .   + ++       ",
"     $   $$  .@.     +    #+ ++#             +  .@.  + +        ",
"      $ $     .            # +#             +    .              ",
"       $$ $$        +      # +                                  ",
"         $           +         ++                               ",
" ++                         ++  +                        ++     ",
"++                   +       ++ =+  +                     ++   +",
"++              +     +       #+ # ++                   +  +#  +",
"#         +     #             #+  +#           +       + # #  ##",
"  ++       +     +               +#           +           #  #  ",
"#+               #                           +              +  #",
"                                                                "};
