/* XPM */
static char * scoreboard_xpm[] = {
"256 52 21 1",
" 	c #311047",
".	c #689F38",
"+	c #F9FBE7",
"@	c #9FB364",
"#	c #FDD835",
"$	c #558B2F",
"%	c #33531C",
"&	c #B25C34",
"*	c #95BC74",
"=	c #E5DB48",
"-	c #8B2747",
";	c #6C855D",
">	c #F7EFBA",
",	c #F4ECAA",
"'	c #F2E99B",
")	c #EFE78C",
"!	c #EDE47D",
"~	c #EBE16E",
"{	c #E8DE5E",
"]	c #E6DC4F",
"^	c #E2AE60",
"     ............                 .........................          ......................................................          ......................................................          .........................                 ............     ",
"     ............                 +........................          .............................+........................          .............................+........................          .........................                 ............     ",
"@@@@@  ..........                 #+..................$..  @@@@@@@@@@  ..................$.......+#+..................$..  @@@@@@@@@@  ..................$.......+#+..................$..  @@@@@@@@@@  ..................$....                 .......$..  @@@@@",
"@@@@@  ..........                 +...............$..%...  @@@@@@@@@@  ..................%........+...............$..%...  @@@@@@@@@@  ..................%........+...............$..%...  @@@@@@@@@@  ..................%....                 ...$..%...  @@@@@",
"@@@@@@@          &&&&&&&&&&&&&&&&&         .$......$...  @@@@@@@@@@@@@@  $$.............$...................$......$...  @@@@@@@@@@@@@@  $$.............$...................$......$...  @@@@@@@@@@@@@@  $$..........         &&&&&&&&&&&&&&&&&          @@@@@@@",
"@@@@@@@          &&&&&&&&&&&&&&&&&         $..........$  @@@@@@@@@@@@@@  $%.........*...%..................$..........$  @@@@@@@@@@@@@@  $%.........*...%..................$..........$  @@@@@@@@@@@@@@  $%.........*         &&&&&&&&&&&&&&&&&          @@@@@@@",
"@@@@@@@          &&&&&&&&&&&&&&&&&         .......$..%.  @@@@@@@@@@@@@@  %...........*.....*......................$..%.  @@@@@@@@@@@@@@  %...........*.....*......................$..%.  @@@@@@@@@@@@@@  %...........         &&&&&&&&&&&&&&&&&          @@@@@@@",
"@@@@@@@@@        &&&&&&&&&&&&&&&&&         ........%.  @@@@@@@==@@@@@@@@@  ..........*..*.*........................%.  @@@@@@@==@@@@@@@@@  ..........*..*.*........................%.  @@@@@@@==@@@@@@@@@  ..........         &&&&&&&&&&&&&&&&&        @@@@@@@==",
"@@@@@@@@@        &&&&&&&&&&&&&&&&&         ........$.  @@@@@@@==@@@@@@@@@  ...$$.......*...........................$.  @@@@@@@==@@@@@@@@@  ...$$.......*...........................$.  @@@@@@@==@@@@@@@@@  ...$$.....         &&&&&&&&&&&&&&&&&        @@@@@@@==",
"@@@@@@@@@        &&&&&&&&&&&&&&&&&         .......   @@@@@@===@@@@@@@@@@@@@   $$.......*.........$................   @@@@@@===@@@@@@@@@@@@@   $$.......*.........$................   @@@@@@===@@@@@@@@@@@@@   $$.....         &&&&&&&&&&&&&&&&&        @@@@===@@",
"@@@@@@@@@        &&&&&&&&&&&&&&&&&         .......   @@@@@@===@@@@@@@@@@@@@   %..............$..$..$..............   @@@@@@===@@@@@@@@@@@@@   %..............$..$..$..............   @@@@@@===@@@@@@@@@@@@@   %......         &&&&&&&&&&&&&&&&&        @@@@===@@",
"@@@@@@@@@        &&&&&&&&&&&&&&&&&         .......   @@@@@@@@@@@@@@@@@@@@@@   ...............%..$..%..............   @@@@@@@@@@@@@@@@@@@@@@   ...............%..$..%..............   @@@@@@@@@@@@@@@@@@@@@@   .......         &&&&&&&&&&&&&&&&&        @@@@@@@@@",
"@@@@@@@@@        -----------------         .......   @@@@@@@@@@@@@@@@@@@@@@   ................$.%.$...**..........   @@@@@@@@@@@@@@@@@@@@@@   ................$.%.$...**..........   @@@@@@@@@@@@@@@@@@@@@@   .......         -----------------        @@@@@@@@@",
"@@@@@@@@@        -----------------         ......+   @@@@@@===@@@@@@@@@@@@@   ................%.%.%..*...........+   @@@@@@===@@@@@@@@@@@@@   ................%.%.%..*...........+   @@@@@@===@@@@@@@@@@@@@   .......         -----------------        @@@@===@@",
"@@@@@@@@@        -----------------         .......   @@@@@@===@@@@@@@@@@@@@   ......$.............................   @@@@@@===@@@@@@@@@@@@@   ......$.............................   @@@@@@===@@@@@@@@@@@@@   ......$         -----------------        @@@@===@@",
"@@@@@@@@@        -----------------         .....  ;;;  @@@@@@@@@@@@@@@@@@  ;;;  .....$.............**...**......  ;;;  @@@@@@@@@@@@@@@@@@  ;;;  .....$.............**...**......  ;;;  @@@@@@@@@@@@@@@@@@  ;;;  .....         -----------------        @@@@@@@@@",
"@@@@@@@@@                                                                                                                                                                                                                                              @@@@@@@@@",
"@@@@@@@@@                                                                                                                                                                                                                                              @@@@@@@@@",
"@@@@@                                                                                                                                                                                                                                                      @@@@@",
"@@@@@                                                                                                                                                                                                                                                      @@@@@",
"         &&&&&&&&&&&&&&&&&&&&&&&&&&&&&&&&&&&&&&&&&&&&&&&&&&&&&&&&&&&&&&&&&&&&&&&&&&&&&&&&&&&&&&&&&&&&&&&&&&&&&&&&&&&&&&&&&&&&&&&&&&&&&&&&&&&&&&&&&&&&&&&&&&&&&&&&&&&&&&&&&&&&&&&&&&&&&&&&&&&&&&&&&&&&&&&&&&&&&&&&&&&&&&&&&&&&&&&&&&&&&&&&&&&&&&&&&&&&&&         ",
"         &&&&&&&&&&&&&&&&&&&&&&&&&&&&&&&&&&&&&&&&&&&&&&&&&&&&&&&&&&&&&&&&&&&&&&&&&&&&&&&&&&&&&&&&&&&&&&&&&&&&&&&&&&&&&&&&&&&&&&&&&&&&&&&&&&&&&&&&&&&&&&&&&&&&&&&&&&&&&&&&&&&&&&&&&&&&&&&&&&&&&&&&&&&&&&&&&&&&&&&&&&&&&&&&&&&&&&&&&&&&&&&&&&&&&&&&&&&&&&         ",
"         &&&&&&&&&&&&&&&&&&&&&&&&&&&&&&&&&&&&&&&&&&&&&&&&&&&&&&&&&&&&&&&&&&&&&&&&&&&&&&&&&&&&&&&&&&&&&&&&&&&&&&&&&&&&&&&&&&&&&&&&&&&&&&&&&&&&&&&&&&&&&&&&&&&&&&&&&&&&&&&&&&&&&&&&&&&&&&&&&&&&&&&&&&&&&&&&&&&&&&&&&&&&&&&&&&&&&&&&&&&&&&&&&&&&&&&&&&&&&&         ",
"         &&&&&&&&&&&&&&&&&&&&&&&&&&&&&&&&&&&&&&&&&&&&&&&&&&&&&&&&&&&&&&&&&&&&&&&&&&&&&&&&&&&&&&&&&&&&&&&&&&&&&&&&&&&&&&&&&&&&&&&&&&&&&&&&&&&&&&&&&&&&&&&&&&&&&&&&&&&&&&&&&&&&&&&&&&&&&&&&&&&&&&&&&&&&&&&&&&&&&&&&&&&&&&&&&&&&&&&&&&&&&&&&&&&&&&&&&&&&&&         ",
"         &&&&&&&&&&&&&&&&&&&&&&&&&&&&&&&&&&&&&&&&&&&&&&&&&&&&&&&&&&&&&&&&&&&&&&&&&&&&&&&&&&&&&&&&&&&&&&&&&&&&&&&&&&&&&&&&&&&&&&&&&&&&&&&&&&&&&&&&&&&&&&&&&&&&&&&&&&&&&&&&&&&&&&&&&&&&&&&&&&&&&&&&&&&&&&&&&&&&&&&&&&&&&&&&&&&&&&&&&&&&&&&&&&&&&&&&&&&&&&         ",
"         &&&&&&&&&&&&&&&&&&&&&&&&&&&&&&&&&&&&&&&&&&&&&&&&&&&&&&&&&&&&&&&&&&&&&&&&&&&&&&&&&&&&&&&&&&&&&&&&&&&&&&&&&&&&&&&&&&&&&&&&&&&&&&&&&&&&&&&&&&&&&&&&&&&&&&&&&&&&&&&&&&&&&&&&&&&&&&&&&&&&&&&&&&&&&&&&&&&&&&&&&&&&&&&&&&&&&&&&&&&&&&&&&&&&&&&&&&&&&&         ",
"         &&&&&&&&&&&&&&&&&&&&&&&&&&&&&&&&&&&&&&&&&&&&&&&&&&&&&&&&&&&&&&&&&&&&&&&&&&&&&&&&&&&&&&&&&&&&&&&&&&&&&&&&&&&&&&&&&&&&&&&&&&&&&&&&&&&&&&&&&&&&&&&&&&&&&&&&&&&&&&&&&&&&&&&&&&&&&&&&&&&&&&&&&&&&&&&&&&&&&&&&&&&&&&&&&&     &&&&&&&&&&&&&&&&&&&&&&&         ",
"         &&&&&&&&&&&&&&&&&&&&&&&&&&&&&&&&&&&&&&&&&&&&&&&&&&&&&&&&&&&&&&&&&&&&&&&&&&&&&&&&&&&&&&&&&&&&&&&&&&&&&&&&&&&&&&&&&&&&&&&&&&&&&&&&&&&&&&&&&&&&&&&&&&&&&&&&&&&&&&&&&&&&&&&&&&&&&&&&&&&&&&&&&&&&&&&&&&&&&&&&&&&&&&&&&  >>>  &&&&&&&&&&&&&&&&&&&&&&         ",
"         &&&&&&&&&&&&&&&&&&&&&&&&&&&&&&&&&&&&&&&&&&&&&&&&&&&&&&&&&&&&&&&&&&&&&&&&&&&&&&&&&&&&&&&&&&&&&&&&&&&&&&&&&&&&&&&&&&&&&&&&&&&&&&&&&&&&&&&&&&&&&&&&&&&&&&&&&&&&&&&&&&&&&&&&&&&&&&&&&&&&&&&&&&&&&&&&&&&&&&&&&&&&&&&&  ,,,,,  &&&&&&&&&&&&&&&&&&&&&         ",
"         &&&&&&&&&&&&&&&&&&&&&&&&&&&&&&&&&&&&&&&&&&&&&&&&&&&&&&&&&&&&&&&&&&&&&&&&&&&&&&&&&&&&&&&&&&&&&&&&&&&&&&&&&&&&&&&&&&&&&&&&&&&&&&&&&&&&&&&&&&&&&&&&&&&&&&&&&&&&&&&&&&&&&&&&&&&&&&&&&&&&&&&&&&&&&&&&&&&&&&&&&&&&&&&  '''''''  &&&&&&&&&&&&&&&&&&&&         ",
"         &&&&&&&&&&&&&&&&&&&&&&&&&&&&&&&&&&&&&&&&&&&&&&&&&&&&&&&&&&&&&&&&&&&&&&&&&&&&&&&&&&&&&&&&&&&&&&&&&&&&&&&&&&&&&&&&&&&&&&&&&&&&&&&&&&&&&&&&&&&&&&&&&&&&&&&&&&&&&&&&&&&&&&&&&&&&&&&&&&&&&&&&&&&&&&&&&&&&&&&&&&&&&&& )))   )))           &&&&&&&&&&         ",
"         &&&&&&&&&&&&&&&&&&&&&&&&&&&&&&&&&&&&&&&&&&&&&&&&&&&&&&&&&&&&&&&&&&&&&&&&&&&&&&&&&&&&&&&&&&&&&&&&&&&&&&&&&&&&&&&&&&&&&&&&&&&&&&&&&&&&&&&&&&&&&&&&&&&&&&&&&&&&&&&&&&&&&&&&&&&&&&&&&&&&&&&&&&&&&&&&&&&&&&&&&&&&&&& !!!   !!!!!!!!!!!!! &&&&&&&&&&         ",
"         &&&&&&&&&&&&&&&&&&&&&&&&&&&&&&&&&&&&&&&&&&&&&&&&&&&&&&&&&&&&&&&&&&&&&&&&&&&&&&&&&&&&&&&&&&&&&&&&&&&&&&&&&&&&&&&&&&&&&&&&&&&&&&&&&&&&&&&&&&&&&&&&&&&&&&&&&&&&&&&&&&&&&&&&&&&&&&&&&&&&&&&&&&&&&&&&&&&&&&&&&&&&&&& ~~~   ~~~~~~~~~~~~~ &&&&&&&&&&         ",
"         &&&&&&&&&&&&&&&&&&&&&&&&&&&&&&&&&&&&&&&&&&&&&&&&&&&&&&&&&&&&&&&&&&&&&&&&&&&&&&&&&&&&&&&&&&&&&&&&&&&&&&&&&&&&&&&&&&&&&&&&&&&&&&&&&&&&&&&&&&&&&&&&&&&&&&&&&&&&&&&&&&&&&&&&&&&&&&&&&&&&&&&&&&&&&&&&&&&&&&&&&&&&&&& {{{   {{    {{  {{{ &&&&&&&&&&         ",
"         &&&&&&&&&&&&&&&&&&&&&&&&&&&&&&&&&&&&&&&&&&&&&&&&&&&&&&&&&&&&&&&&&&&&&&&&&&&&&&&&&&&&&&&&&&&&&&&&&&&&&&&&&&&&&&&&&&&&&&&&&&&&&&&&&&&&&&&&&&&&&&&&&&&&&&&&&&&&&&&&&&&&&&&&&&&&&&&&&&&&&&&&&&&&&&&&&&&&&&&&&&&&&&& ]]]   ]] && ]]  ]]] &&&&&&&&&&         ",
"         &&&&&&&&&&&&&&&&&&&&&&&&&&&&&&&&&&&&&&&&&&&&&&&&&&&&&&&&&&&&&&&&&&&&&&&&&&&&&&&&&&&&&&&&&&&&&&&&&&&&&&&&&&&&&&&&&&&&&&&&&&&&&&&&&&&&&&&&&&&&&&&&&&&&&&&&&&&&&&&&&&&&&&&&&&&&&&&&&&&&&&&&&&&&&&&&&&&&&&&&&&&&&&&  ======= && ==  === &&&&&&&&&&         ",
"         &&&&&&&&&&&&&&&&&&&&&&&&&&&&&&&&&&&&&&&&&&&&&&&&&&&&&&&&&&&&&&&&&&&&&&&&&&&&&&&&&&&&&&&&&&&&&&&&&&&&&&&&&&&&&&&&&&&&&&&&&&&&&&&&&&&&&&&&&&&&&&&&&&&&&&&&&&&&&&&&&&&&&&&&&&&&&&&&&&&&&&&&&&&&&&&&&&&&&&&&&&&&&&&&  =====  && ==  === &&&&&&&&&&         ",
"         &&&&&&&&&&&&&&&&&&&&&&&&&&&&&&&&&&&&&&&&&&&&&&&&&&&&&&&&&&&&&&&&&&&&&&&&&&&&&&&&&&&&&&&&&&&&&&&&&&&&&&&&&&&&&&&&&&&&&&&&&&&&&&&&&&&&&&&&&&&&&&&&&&&&&&&&&&&&&&&&&&&&&&&&&&&&&&&&&&&&&&&&&&&&&&&&&&&&&&&&&&&&&&&&&  ==   &&&         &&&&&&&&&&         ",
"         &&&&&&&&&&&&&&&&&&&&&&&&&&&&&&&&&&&&&&&&&&&&&&&&&&&&&&&&&&&&&&&&&&&&&&&&&&&&&&&&&&&&&&&&&&&&&&&&&&&&&&&&&&&&&&&&&&&&&&&&&&&&&&&&&&&&&&&&&&&&&&&&&&&&&&&&&&&&&&&&&&&&&&&&&&&&&&&&&&&&&&&&&&&&&&&&&&&&&&&&&&&&&&&&&&    &&&&&&&&&&&&&&&&&&&&&&&&         ",
"         &&&&&&&&&&&&&&&&&&&&&&&&&&&&&&&&&&&&&&&&&&&&&&&&&&&&&&&&&&&&&&&&&&&&&&&&&&&&&&&&&&&&&&&&&&&&&&&&&&&&&&&&&&&&&&&&&&&&&&&&&&&&&&&&&&&&&&&&&&&&&&&&&&&&&&&&&&&&&&&&&&&&&&&&&&&&&&&&&&&&&&&&&&&&&&&&&&&&&&&&&&&&&&&&&&&&&&&&&&&&&&&&&&&&&&&&&&&&&&         ",
"         &&&&&&&&&&&&&&&&&&&&&&&&&&&&&&&&&&&&&&&&&&&&&&&&&&&&&&&&&&&&&&&&&&&&&&&&&&&&&&&&&&&&&&&&&&&&&&&&&&&&&&&&&&&&&&&&&&&&&&&&&&&&&&&&&&&&&&&&&&&&&&&&&&&&&&&&&&&&&&&&&&&&&&&&&&&&&&&&&&&&&&&&&&&&&&&&&&&&&&&&&&&&&&&&&&&&&&&&&&&&&&&&&&&&&&&&&&&&&&         ",
"         &&&&&&&&&&&&&&&&&&&&&&&&&&&&&&&&&&&&&&&&&&&&&&&&&&&&&&&&&&&&&&&&&&&&&&&&&&&&&&&&&&&&&&&&&&&&&&&&&&&&&&&&&&&&&&&&&&&&&&&&&&&&&&&&&&&&&&&&&&&&&&&&&&&&&&&&&&&&&&&&&&&&&&&&&&&&&&&&&&&&&&&&&&&&&&&&&&&&&&&&&&&&&&&&&&&&&&&&&&&&&&&&&&&&&&&&&&&&&&         ",
"         &&&&&&&&&&&&&&&&&&&&&&&&&&&&&&&&&&&&&&&&&&&&&&&&&&&&&&&&&&&&&&&&&&&&&&&&&&&&&&&&&&&&&&&&&&&&&&&&&&&&&&&&&&&&&&&&&&&&&&&&&&&&&&&&&&&&&&&&&&&&&&&&&&&&&&&&&&&&&&&&&&&&&&&&&&&&&&&&&&&&&&&&&&&&&&&&&&&&&&&&&&&&&&&&&&&&&&&&&&&&&&&&&&&&&&&&&&&&&&         ",
"         &&&&&&&&&&&&&&&&&&&&&&&&&&&&&&&&&&&&&&&&&&&&&&&&&&&&&&&&&&&&&&&&&&&&&&&&&&&&&&&&&&&&&&&&&&&&&&&&&&&&&&&&&&&&&&&&&&&&&&&&&&&&&&&&&&&&&&&&&&&&&&&&&&&&&&&&&&&&&&&&&&&&&&&&&&&&&&&&&&&&&&&&&&&&&&&&&&&&&&&&&&&&&&&&&&&&&&&&&&&&&&&&&&&&&&&&&&&&&&         ",
"         &&&&&&&&^^^^^^^^^^^^^^^^^^^^^^^^^^^^^^^^^^^^^^^^^^^^^^^^^^^^^^^^^^^^^^^^^^^^^^^^^^^^^^^^^^^^^^^^^^^^^^^^^^^^^^^^^^^^^^^^^^^^^^^^^^^^^^^^^^^^^^^^^^^^^^^^^^^^^^^^^^^^^^^^^^^^^^^^^^^^^^^^^^^^^^^^^^^^^^^^^^^^^^^^^^^^^^^^^^^^^^^^^^^^^^&&&&&&&&         ",
"         &&&&&&&&^^^^^^^^^^^^^^^^^^^^^^^^^^^^^^^^^^^^^^^^^^^^^^^^^^^^^^^^^^^^^^^^^^^^^^^^^^^^^^^^^^^^^^^^^^^^^^^^^^^^^^^^^^^^^^^^^^^^^^^^^^^^^^^^^^^^^^^^^^^^^^^^^^^^^^^^^^^^^^^^^^^^^^^^^^^^^^^^^^^^^^^^^^^^^^^^^^^^^^^^^^^^^^^^^^^^^^^^^^^^^^&&&&&&&&         ",
"         &&&&&&&&^^^^^^^^^^^^^^^^^^^^^^^^^^^^^^^^^^^^^^^^^^^^^^^^^^^^^^^^^^^^^^^^^^^^^^^^^^^^^^^^^^^^^^^^^^^^^^^^^^^^^^^^^^^^^^^^^^^^^^^^^^^^^^^^^^^^^^^^^^^^^^^^^^^^^^^^^^^^^^^^^^^^^^^^^^^^^^^^^^^^^^^^^^^^^^^^^^^^^^^^^^^^^^^^^^^^^^^^^^^^^^&&&&&&&&         ",
"         &&&&&&&&^^^^^^^^^^^^^^^^^^^^^^^^^^^^^^^^^^^^^^^^^^^^^^^^^^^^^^^^^^^^^^^^^^^^^^^^^^^^^^^^^^^^^^^^^^^^^^^^^^^^^^^^^^^^^^^^^^^^^^^^^^^^^^^^^^^^^^^^^^^^^^^^^^^^^^^^^^^^^^^^^^^^^^^^^^^^^^^^^^^^^^^^^^^^^^^^^^^^^^^^^^^^^^^^^^^^^^^^^^^^^^&&&&&&&&         ",
"@@@@@@@                                                                                                                                                                                                                                                  @@@@@@@",
"                                                                                                                                                                                                                                                                ",
"                                                                                                                                                                                                                                                                ",
"---------                                                                                                                                                                                                                                              ---------"};
