/* XPM */
static char * three_xpm[] = {
"64 64 13 1",
" 	c #689F38",
".	c #311047",
"+	c #F9FBE7",
"@	c #FDD835",
"#	c #558B2F",
"$	c #9FB364",
"%	c #33531C",
"&	c #95BC74",
"*	c #E5DB48",
"=	c #6C855D",
"-	c #3E5F21",
";	c #8B2747",
">	c #B25C34",
"                           ..........                           ",
"  +                        ..........                           ",
" +@+                  #  ..$$$$$$$$$$..                  #      ",
"  +               #  %   ..$$$$$$$$$$..                  %      ",
"            #      #   ..$$$$$$$$$$$$$$..##             #       ",
"           #          #..$$$$$$$$$$$$$$..#%         &   %       ",
"                  #  % ..$$$$$$$$$$$$$$..%           &     &    ",
"                   % ..$$$$$$$**$$$$$$$$$..          &  & &     ",
"                   # ..$$$$$$$**$$$$$$$$$..   ##       &        ",
" #                ...$$$$$$***$$$$$$$$$$$$$...##       &        ",
"#  #              ...$$$$$$***$$$$$$$$$$$$$...%              #  ",
"#  %              ...$$$$$$$$$$$$$$$$$$$$$$...               %  ",
"% #   &&          ...$$$$$$$$$$$$$$$$$$$$$$...                # ",
"% %  &           +...$$$$$$***$$$$$$$$$$$$$...                % ",
"                  ...$$$$$$***$$$$$$$$$$$$$...      #           ",
"   &&   &&      ..===..$$$$$$$$$$$$$$$$$$..===..     #          ",
"  &    &        ..===..$$$$$$$$$$$$$$$$$$..===..                ",
"                ..===..$$$$$$$$$$$$$$$$$$..===..                ",
"                ..=====....$$$$$$$$$$....=====..           +    ",
"                ..=====....$$$$$$$$$$....=====..          +@+   ",
"                ..$$$======..........======$$$..           +    ",
"            #  #..$$$======..........======$$$..                ",
"             #  ..$$$$$$$==============$$$$$$$..                ",
"    # #       # ..$$$$$$$==============$$$$$$$..                ",
"     #            ...$$$$$$$$$$$$$$$$$$$$$$...                  ",
"                  ...$$$$$$$$$$$$$$$$$$$$$$...                  ",
"                ..===....$$$$$$$$$$$$$$....===..           #    ",
"                ..===....$$$$$$$$$$$$$$....===..            #   ",
"  ##            ..===....$$$$$$$$$$$$$$....===..   &            ",
"    ##          ..=======..............=======..    &  &        ",
"###  #          ..=======..............=======..      &         ",
"  ## -#  # &&   ..$$$$$==================$$$$$..         &      ",
"   %# % ##&     ..$$$$$==================$$$$$..    &   &       ",
"   %#  #%       ..$$$$$$$$$$$$$$$$$$$$$$$$$$$$..     &          ",
"      #%   ##   ..$$$$$$$$$$$$$$$$$$$$$$$$$$$$..     &          ",
"     & &    ##    ...$$$$$$$$$$$$$$$$$$$$$$...                  ",
" ##   &  #  %#  # ...$$$$$$$$$$$$$$$$$$$$$$...            #     ",
"  ##      # %# ## ...$$$$$$$$$$$$$$$$$$$$$$...             #    ",
"  %#  #   %# % #..===....$$$$$$$$$$$$$$....===..###            #",
"# %# ##   %#  #%..===....$$$$$$$$$$$$$$....===..#%              ",
"%# % #%       % ..$$$====..............====$$$..%               ",
"%#  #%  & &     ..$$$====..............====$$$..           #    ",
"    %    &      ..$$$$$==================$$$$$..            #   ",
"                ..$$$$$==================$$$$$..                ",
"                  ...$$$$$$$$$$$$$$$$$$$$$$...       # #        ",
"               # #...$$$$$$$$$$$$$$$$$$$$$$...        #         ",
"                #    ....$$$$$$$$$$$$$$....                     ",
"   #                 ....$$$$$$$$$$$$$$....    #                ",
"   %                 ....$$$$$$$$$$$$$$....   #                 ",
"    #      +           ..................    #                  ",
"    %     +@+          ..................           #   ##      ",
"           +         ..;;;;;;;;;;;;;;;;;;..         ## ###      ",
"              +     #..;;;;;;;;;;;;;;;;;;..   #  +   # ##       ",
"     &   &&  +@+     ..>>>>;;;;;;;;;;>>>>..  #  +@+  # #        ",
"      & &     +      ..>>>>;;;;;;;;;;>>>>.. #    +              ",
"       && &&      ...>>;;..>>>>>>>>>>..;;>>...                  ",
"         &        ...>>;;..>>>>>>>>>>..;;>>...                  ",
" ##               .......;;>>>>>>>>>>;;.......           ##     ",
"##                .......;;>>>>>>>>>>;;.......            ##   #",
"##              # .......;;>>>>>>>>>>;;.......          #  #%  #",
"%         #     %    ..;;>>...;;>>...>>;;..    #       # % %  %%",
"  ##       #     #   ..;;>>...;;>>...>>;;..   #           %  %  ",
"%#               %     ....   ....   ....    #              #  %",
"                       ....   ....   ....                       "};
